# xmcd CD database file
#
# Track frame offsets:
#	150
#	34851
#	84689
#	111692
#	150749
#
# Disc length: 2405 seconds
#
# Revision: 0
# Processed by: cddbd v1.5.2PL0 Copyright (c) Steve Scherf et al.
# Submitted via: CDex 1.81
#
DISCID=3e096305
DTITLE=Herbie Hancock - Inventions and Dimensions
DYEAR=1964
DGENRE=Jazz
TTITLE0=Succotash
TTITLE1=Triangle
TTITLE2=Jack Rabbit
TTITLE3=Mimosa
TTITLE4=A Jump Ahead
EXTD=YEAR: 1964
EXTT0=
EXTT1=
EXTT2=
EXTT3=
EXTT4=
PLAYORDER=
